<?xml version="1.0" standalone="no"?>
<!DOCTYPE svg PUBLIC "-//W3C//DTD SVG 20010904//EN"
 "http://www.w3.org/TR/2001/REC-SVG-20010904/DTD/svg10.dtd">
<svg version="1.0" xmlns="http://www.w3.org/2000/svg"
 width="260.000000pt" height="260.000000pt" viewBox="0 0 260.000000 260.000000"
 preserveAspectRatio="xMidYMid meet">
<metadata>
Created by potrace 1.11, written by Peter Selinger 2001-2013
</metadata>
<g transform="translate(0.000000,260.000000) scale(0.100000,-0.100000)"
fill="#000000" stroke="none">
<path d="M0 1300 l0 -1300 1300 0 1300 0 0 1300 0 1300 -1300 0 -1300 0 0
-1300z m1383 1020 l52 -1 -42 -35 -42 -35 15 -41 c20 -58 18 -63 -18 -36 -18
13 -38 27 -44 31 -6 3 -30 -8 -54 -25 -43 -32 -43 -32 -36 -8 22 77 20 84 -25
115 l-43 30 57 3 56 3 17 51 17 52 19 -52 19 -52 52 0z m-496 -130 c29 0 53
-3 53 -7 -1 -5 -18 -20 -40 -35 l-38 -27 14 -47 c8 -26 12 -49 11 -51 -2 -2
-22 10 -44 26 l-41 30 -39 -29 c-21 -16 -41 -30 -45 -30 -3 0 1 23 10 50 15
48 15 51 -4 64 -10 8 -30 23 -44 35 l-25 20 57 1 56 0 12 38 c21 68 23 69 39
15 l16 -53 52 0z m918 50 l16 -49 57 -3 57 -3 -43 -29 c-46 -32 -48 -39 -26
-115 l7 -24 -39 27 c-48 32 -52 32 -94 1 -18 -14 -36 -23 -38 -20 -2 2 3 24
11 49 l16 46 -46 32 -46 33 59 5 58 5 14 48 c7 26 15 47 17 47 2 0 11 -22 20
-50z m-320 -231 c28 -7 52 -16 55 -19 3 -3 23 -11 45 -19 22 -7 59 -27 83 -42
24 -16 47 -29 52 -29 5 0 25 -15 44 -32 19 -18 43 -40 53 -48 37 -31 141 -199
173 -280 10 -25 21 -63 24 -84 4 -21 9 -42 12 -47 6 -10 5 -153 -1 -212 -5
-57 -55 -204 -81 -243 -13 -19 -24 -38 -24 -42 0 -4 -16 -25 -35 -47 -19 -22
-35 -46 -35 -52 0 -7 -4 -13 -10 -13 -5 0 -28 -18 -52 -41 -65 -62 -206 -141
-272 -153 -15 -3 -33 -9 -39 -14 -30 -23 -279 -22 -359 2 -32 9 -61 17 -65 17
-5 0 -15 7 -24 15 -9 8 -19 11 -22 7 -4 -3 -15 0 -24 8 -10 8 -35 23 -56 33
-89 45 -180 141 -248 261 -81 143 -100 206 -102 345 -3 143 10 208 63 326 64
140 144 226 295 314 154 90 218 107 375 105 72 -1 146 -7 175 -16z m-957 -177
c29 -2 52 -7 52 -13 0 -5 -4 -9 -8 -9 -4 0 -22 -12 -40 -27 l-33 -28 16 -44
c8 -24 14 -46 12 -47 -2 -2 -20 8 -40 21 -20 14 -40 25 -44 25 -5 0 -26 -12
-47 -26 l-39 -27 7 29 c20 80 20 80 -18 103 -20 13 -36 27 -36 32 0 5 22 9 49
9 l49 0 18 53 17 52 17 -50 17 -50 51 -3z m1637 48 l16 -49 56 -3 55 -3 -46
-32 -45 -32 14 -42 c21 -60 19 -62 -25 -33 -43 29 -53 28 -109 -13 -24 -18
-25 -18 -17 7 22 77 20 84 -25 115 l-43 30 59 5 59 5 15 48 c8 26 16 47 17 47
1 0 10 -22 19 -50z m130 -490 l17 -50 56 0 57 -1 -26 -22 c-14 -12 -34 -27
-44 -33 -16 -9 -17 -15 -8 -50 6 -21 14 -47 18 -58 6 -14 -2 -11 -35 13 -24
17 -48 31 -53 31 -6 0 -25 -12 -44 -26 -19 -14 -36 -24 -39 -22 -2 3 3 24 11
48 8 23 15 44 15 46 0 2 -18 16 -40 30 -22 15 -40 30 -40 35 0 4 23 9 52 11
l52 3 16 47 c8 27 16 48 17 48 1 0 9 -22 18 -50z m-1898 -50 c29 0 53 -4 53
-10 0 -5 -4 -10 -8 -10 -4 0 -22 -12 -40 -27 l-33 -28 16 -44 c8 -24 13 -46
10 -49 -2 -3 -20 7 -39 22 -43 32 -49 32 -90 1 -18 -14 -36 -25 -39 -25 -3 0
1 21 10 47 l16 47 -44 38 -44 38 58 0 c32 0 57 4 57 10 0 6 7 27 16 48 l17 37
15 -47 16 -48 53 0z m82 -480 c5 -9 28 -17 56 -20 l49 -5 -42 -28 c-23 -15
-42 -29 -42 -31 0 -2 7 -23 15 -46 8 -24 13 -45 10 -48 -2 -3 -20 7 -39 22
-19 14 -39 26 -43 26 -5 0 -28 -14 -51 -31 l-42 -30 15 42 c21 60 19 71 -20
97 -19 12 -35 26 -35 30 0 4 20 6 45 4 49 -4 44 -9 80 83 7 18 9 16 21 -15 8
-19 18 -42 23 -50z m1699 1 c5 -8 28 -16 52 -18 24 -2 45 -5 47 -7 2 -2 -12
-14 -32 -27 -39 -27 -41 -38 -20 -98 l14 -41 -44 30 c-24 16 -47 30 -51 30 -4
0 -22 -12 -41 -26 -41 -31 -49 -26 -34 17 18 51 13 66 -25 89 -19 12 -34 24
-32 26 2 1 23 4 46 5 49 3 54 8 72 64 l13 40 14 -35 c7 -19 17 -41 21 -49z
m-1348 -353 c0 -18 6 -20 73 -21 20 -1 37 -4 37 -8 0 -3 -18 -18 -40 -33 l-39
-26 14 -47 c8 -26 12 -49 10 -51 -2 -2 -19 8 -38 22 -42 32 -45 32 -87 1 -45
-33 -50 -32 -34 13 15 42 18 72 6 72 -4 0 -23 13 -42 29 l-35 29 48 -2 c46 -3
77 11 77 34 0 5 5 21 11 37 l11 28 14 -30 c7 -16 13 -38 14 -47z m970 44 c0
-9 6 -28 13 -41 10 -22 19 -25 60 -24 26 1 47 -2 47 -7 0 -4 -16 -18 -35 -31
-38 -26 -41 -39 -24 -88 15 -43 6 -49 -31 -17 -39 32 -45 32 -87 0 -19 -14
-37 -24 -40 -21 -3 3 2 26 10 50 l15 45 -44 32 c-24 17 -44 34 -44 36 0 3 22
3 49 0 55 -6 62 -1 81 57 11 37 30 42 30 9z m-471 -182 c5 -9 28 -17 57 -20
l49 -5 -35 -25 c-48 -33 -50 -38 -33 -82 9 -21 13 -41 10 -44 -3 -4 -21 6 -40
20 -19 14 -38 26 -42 26 -4 0 -23 -12 -42 -26 -19 -14 -37 -24 -39 -21 -3 3 0
24 7 47 l13 43 -39 33 -40 34 46 0 c52 0 61 7 79 65 l13 40 14 -35 c7 -19 17
-42 22 -50z"/>
</g>
</svg>
